<?xml version="1.0" encoding="utf-8"?>
<!-- Generator: Adobe Illustrator 21.1.0, SVG Export Plug-In . SVG Version: 6.00 Build 0)  -->
<svg version="1.1" id="Layer_1" xmlns="http://www.w3.org/2000/svg" xmlns:xlink="http://www.w3.org/1999/xlink" x="0px" y="0px"
	 viewBox="0 0 2000 2000" style="enable-background:new 0 0 2000 2000;" xml:space="preserve">
<style type="text/css">
	.st0{fill:#F8F2F8;}
	.st1{fill:#546993;}
	.st2{fill:#384F79;}
	.st3{fill:#BE7C4F;}
	.st4{clip-path:url(#SVGID_2_);fill:#E0DDE8;}
	.st5{clip-path:url(#SVGID_4_);fill:#9B5D4C;}
	.st6{fill:#9B5D4C;}
	.st7{fill:#6D473A;}
	.st8{clip-path:url(#SVGID_6_);fill:#384F79;}
	.st9{clip-path:url(#SVGID_8_);fill:#233960;}
</style>
<g>
	<path class="st0" d="M1337.7,1750.5h-673c-108,0-195.5-87.5-195.5-195.5V678.5l196-159.5h668l200,159.5V1555
		C1533.2,1663,1445.7,1750.5,1337.7,1750.5z"/>
	<path class="st1" d="M1346.3,251H656.2c-53.5,0-96.9,43.4-96.9,96.9V519h884V347.9C1443.2,294.4,1399.9,251,1346.3,251z"/>
	<rect x="559.2" y="432.5" class="st2" width="884" height="86.5"/>
	<path class="st3" d="M1256.5,937.6c-27.3,25.9-64.1,41.9-104.7,41.9c-83.9,0-152-68-152-152c-193.9,0.5-351,157.9-351,352
		c0,194.4,157.6,352,352,352s352-157.6,352-352C1352.8,1085.8,1316.2,1000.7,1256.5,937.6z"/>
	<g>
		<defs>
			<rect id="SVGID_1_" x="1000.8" y="154.5" width="704" height="1704"/>
		</defs>
		<clipPath id="SVGID_2_">
			<use xlink:href="#SVGID_1_"  style="overflow:visible;"/>
		</clipPath>
		<path class="st4" d="M1337.7,1750.5h-673c-108,0-195.5-87.5-195.5-195.5V678.5l196-159.5h668l200,159.5V1555
			C1533.2,1663,1445.7,1750.5,1337.7,1750.5z"/>
	</g>
	<g>
		<defs>
			<rect id="SVGID_3_" x="1000.8" y="154.5" width="704" height="1704"/>
		</defs>
		<clipPath id="SVGID_4_">
			<use xlink:href="#SVGID_3_"  style="overflow:visible;"/>
		</clipPath>
		<path class="st5" d="M1256.5,937.6c-27.3,25.9-64.1,41.9-104.7,41.9c-83.9,0-152-68-152-152c-193.9,0.5-351,157.9-351,352
			c0,194.4,157.6,352,352,352s352-157.6,352-352C1352.8,1085.8,1316.2,1000.7,1256.5,937.6z"/>
	</g>
	<rect x="824.8" y="1134.5" class="st6" width="89" height="89"/>
	<rect x="1000.8" y="1223.5" class="st7" width="89" height="89"/>
	<g>
		<defs>
			<rect id="SVGID_5_" x="1000.8" y="154.5" width="704" height="1704"/>
		</defs>
		<clipPath id="SVGID_6_">
			<use xlink:href="#SVGID_5_"  style="overflow:visible;"/>
		</clipPath>
		<path class="st8" d="M1346.3,251H656.2c-53.5,0-96.9,43.4-96.9,96.9V519h884V347.9C1443.2,294.4,1399.9,251,1346.3,251z"/>
	</g>
	<g>
		<defs>
			<rect id="SVGID_7_" x="1000.8" y="154.5" width="704" height="1704"/>
		</defs>
		<clipPath id="SVGID_8_">
			<use xlink:href="#SVGID_7_"  style="overflow:visible;"/>
		</clipPath>
		<rect x="559.2" y="432.5" class="st9" width="884" height="86.5"/>
	</g>
</g>
</svg>
